<svg width="10" height="10" viewBox="0 0 10 10" fill="none" xmlns="http://www.w3.org/2000/svg">
<g clip-path="url(#clip0_35_24)">
<path fill-rule="evenodd" clip-rule="evenodd" d="M3.51345 3.4188C3.51345 3.60735 3.35182 3.76068 3.15308 3.76068C2.95435 3.76068 2.79272 3.60735 2.79272 3.4188V1.53846C2.79272 0.690171 3.60101 0 4.59453 0H5.49543C6.43507 0 7.11705 0.647009 7.11705 1.53846V3.4188C7.11705 3.60735 6.95534 3.76068 6.75669 3.76068C6.55804 3.76068 6.39633 3.60735 6.39633 3.4188V1.53846C6.39633 1.01923 6.04264 0.683761 5.49543 0.683761H4.59453C4.07462 0.683761 3.51345 1.01051 3.51345 1.53846V3.4188ZM9.58927 2.39316C9.69341 2.39316 9.79278 2.43991 9.86215 2.5217C9.93161 2.6035 9.96449 2.71256 9.95269 2.82136L9.30449 8.78452C9.29233 9.45692 8.76828 9.99999 8.12584 9.99999H1.78431C1.14179 9.99999 0.617737 9.45692 0.605665 8.78461L-0.0425335 2.82145C-0.0544254 2.71256 -0.0215425 2.6035 0.0479169 2.5217C0.117286 2.43991 0.216656 2.39316 0.32089 2.39316H2.25233V3.4188C2.25233 3.89008 2.65648 4.2735 3.15323 4.2735C3.64999 4.2735 4.05413 3.89008 4.05413 3.4188V2.39316H5.85593V3.4188C5.85593 3.89008 6.26008 4.2735 6.75684 4.2735C7.25359 4.2735 7.65774 3.89008 7.65774 3.4188V2.39316H9.58927Z" fill="#231F20"/>
</g>
<defs>
<clipPath id="clip0_35_24">
<rect width="10" height="10" fill="white"/>
</clipPath>
</defs>
</svg>
